<svg width="12" height="20" viewBox="0 0 12 20" fill="none" xmlns="http://www.w3.org/2000/svg">
<path d="M11.0721 19.5598C11.354 19.2778 11.5123 18.8954 11.5123 18.4967C11.5123 18.098 11.354 17.7157 11.0721 17.4337L3.62935 9.99092L11.0721 2.54815C11.346 2.26457 11.4976 1.88476 11.4941 1.49052C11.4907 1.09629 11.3326 0.719168 11.0538 0.44039C10.775 0.161613 10.3979 0.00348282 10.0037 5.72205e-05C9.60943 -0.00336838 9.22962 0.148186 8.94604 0.422075L0.440231 8.92789C0.158351 9.20985 0 9.59222 0 9.99092C0 10.3896 0.158351 10.772 0.440231 11.054L8.94604 19.5598C9.22801 19.8416 9.61038 20 10.0091 20C10.4078 20 10.7902 19.8416 11.0721 19.5598Z" fill="#007AFF"/>
</svg>
